P3
2 2
255
144 0 0   0 144 144
144 144 0   0 0 144
